<svg xmlns="http://www.w3.org/2000/svg" xmlns:xlink="http://www.w3.org/1999/xlink" contentStyleType="text/css" data-diagram-type="CLASS" height="496.4px" preserveAspectRatio="none" style="width:885px;height:496px;background:#FEFEFE;" version="1.1" viewBox="0 0 885 496" width="885.2px" zoomAndPan="magnify"><title>ESQL Processor - Class Diagram</title><defs/><g><rect fill="#FEFEFE" height="496.4" style="stroke:none;stroke-width:0.4;" width="885.2" x="0" y="0"/><g class="title" data-source-line="5"><text fill="#000000" font-family="Verdana" font-size="8.8" font-weight="bold" lengthAdjust="spacing" textLength="157.9531" x="361.8235" y="14.8473">ESQL Processor - Class Diagram</text></g><!--class Main--><g class="entity" data-entity="Main" data-source-line="7" data-uid="ent0002" id="entity_Main"><rect fill="#FFFFFF" height="31.2117" rx="1" ry="1" style="stroke:#000000;stroke-width:0.4;" width="90.2492" x="454.064" y="23.8949"/><ellipse cx="491.107" cy="29.4949" fill="#FFFFFF" rx="3.6" ry="3.6" style="stroke:#000000;stroke-width:0.4;"/><path d="M492.2962,31.7521 Q492.0638,31.8717 491.8081,31.9314 Q491.5525,31.9912 491.2703,31.9912 Q490.2675,31.9912 489.7396,31.3305 Q489.2117,30.6697 489.2117,29.4213 Q489.2117,28.1695 489.7396,27.5088 Q490.2675,26.848 491.2703,26.848 Q491.5525,26.848 491.8115,26.9078 Q492.0704,26.9676 492.2962,27.0871 L492.2962,28.1762 Q492.0439,27.9438 491.8065,27.8358 Q491.5691,27.7279 491.3167,27.7279 Q490.7788,27.7279 490.5049,28.1546 Q490.231,28.5813 490.231,29.4213 Q490.231,30.258 490.5049,30.6847 Q490.7788,31.1113 491.3167,31.1113 Q491.5691,31.1113 491.8065,31.0034 Q492.0439,30.8955 492.2962,30.6631 Z " fill="#000000"/><text fill="#000000" font-family="Verdana" font-size="5.6" lengthAdjust="spacing" textLength="13.1633" x="498.107" y="31.7221">Main</text><line style="stroke:#000000;stroke-width:0.4;" x1="454.464" x2="543.9132" y1="35.0949" y2="35.0949"/><line style="stroke:#000000;stroke-width:0.4;" x1="454.464" x2="543.9132" y1="38.2949" y2="38.2949"/><text fill="#000000" font-family="Verdana" font-size="5.6" lengthAdjust="spacing" textLength="78.5613" x="456.464" y="45.525">+main(args: String[]): void</text><text fill="#000000" font-family="Verdana" font-size="5.6" lengthAdjust="spacing" textLength="85.4492" x="456.464" y="52.3309">-readFile(path: String): String</text></g><!--class EMFParser--><g class="entity" data-entity="EMFParser" data-source-line="12" data-uid="ent0003" id="entity_EMFParser"><rect fill="#FFFFFF" height="78.8527" rx="1" ry="1" style="stroke:#000000;stroke-width:0.4;" width="185.6242" x="232.376" y="106.3269"/><ellipse cx="309.0619" cy="111.9269" fill="#FFFFFF" rx="3.6" ry="3.6" style="stroke:#000000;stroke-width:0.4;"/><path d="M310.2512,114.1841 Q310.0188,114.3037 309.7631,114.3634 Q309.5074,114.4232 309.2252,114.4232 Q308.2225,114.4232 307.6946,113.7625 Q307.1666,113.1017 307.1666,111.8533 Q307.1666,110.6015 307.6946,109.9408 Q308.2225,109.28 309.2252,109.28 Q309.5074,109.28 309.7664,109.3398 Q310.0254,109.3996 310.2512,109.5191 L310.2512,110.6082 Q309.9989,110.3758 309.7614,110.2678 Q309.524,110.1599 309.2717,110.1599 Q308.7338,110.1599 308.4599,110.5866 Q308.186,111.0133 308.186,111.8533 Q308.186,112.69 308.4599,113.1167 Q308.7338,113.5433 309.2717,113.5433 Q309.524,113.5433 309.7614,113.4354 Q309.9989,113.3275 310.2512,113.0951 Z " fill="#000000"/><text fill="#000000" font-family="Verdana" font-size="5.6" lengthAdjust="spacing" textLength="29.2523" x="316.0619" y="114.1541">EMFParser</text><line style="stroke:#000000;stroke-width:0.4;" x1="232.776" x2="417.6002" y1="117.5269" y2="117.5269"/><line style="stroke:#000000;stroke-width:0.4;" x1="232.776" x2="417.6002" y1="120.7269" y2="120.7269"/><text fill="#000000" font-family="Verdana" font-size="5.6" lengthAdjust="spacing" textLength="93.9723" x="234.776" y="127.957">+parse(input: String): EMFQuery</text><text fill="#000000" font-family="Verdana" font-size="5.6" lengthAdjust="spacing" textLength="150.1172" x="234.776" y="134.7629">-extractSections(input: String): Map&lt;String, String&gt;</text><text fill="#000000" font-family="Verdana" font-size="5.6" lengthAdjust="spacing" textLength="97.8988" x="234.776" y="141.5687">-parseSelect(section: String): void</text><text fill="#000000" font-family="Verdana" font-size="5.6" lengthAdjust="spacing" textLength="105.0547" x="234.776" y="148.3746">-parseGroupBy(section: String): void</text><text fill="#000000" font-family="Verdana" font-size="5.6" lengthAdjust="spacing" textLength="107.1355" x="234.776" y="155.1804">-parseSuchThat(section: String): void</text><text fill="#000000" font-family="Verdana" font-size="5.6" lengthAdjust="spacing" textLength="100.193" x="234.776" y="161.9863">-parseHaving(section: String): void</text><text fill="#000000" font-family="Verdana" font-size="5.6" lengthAdjust="spacing" textLength="165.9574" x="234.776" y="168.7922">-parseConditionExpression(s: String): ConditionExpression</text><text fill="#000000" font-family="Verdana" font-size="5.6" lengthAdjust="spacing" textLength="122.459" x="234.776" y="175.598">-parseSingleCondition(s: String): Condition</text><text fill="#000000" font-family="Verdana" font-size="5.6" lengthAdjust="spacing" textLength="180.8242" x="234.776" y="182.4039">-extractAggregatesFromExpression(expr: String, list: List): void</text></g><!--class PhiInputParser--><g class="entity" data-entity="PhiInputParser" data-source-line="24" data-uid="ent0004" id="entity_PhiInputParser"><rect fill="#FFFFFF" height="85.6586" rx="1" ry="1" style="stroke:#000000;stroke-width:0.4;" width="185.6242" x="696.776" y="102.9229"/><ellipse cx="767.4026" cy="108.5229" fill="#FFFFFF" rx="3.6" ry="3.6" style="stroke:#000000;stroke-width:0.4;"/><path d="M768.5918,110.7801 Q768.3594,110.8997 768.1037,110.9594 Q767.8481,111.0192 767.5658,111.0192 Q766.5631,111.0192 766.0352,110.3585 Q765.5073,109.6977 765.5073,108.4493 Q765.5073,107.1975 766.0352,106.5368 Q766.5631,105.876 767.5658,105.876 Q767.8481,105.876 768.1071,105.9358 Q768.366,105.9956 768.5918,106.1151 L768.5918,107.2042 Q768.3395,106.9718 768.1021,106.8638 Q767.8647,106.7559 767.6123,106.7559 Q767.0744,106.7559 766.8005,107.1826 Q766.5266,107.6092 766.5266,108.4493 Q766.5266,109.286 766.8005,109.7127 Q767.0744,110.1393 767.6123,110.1393 Q767.8647,110.1393 768.1021,110.0314 Q768.3395,109.9235 768.5918,109.6911 Z " fill="#000000"/><text fill="#000000" font-family="Verdana" font-size="5.6" lengthAdjust="spacing" textLength="41.3711" x="774.4026" y="110.7501">PhiInputParser</text><line style="stroke:#000000;stroke-width:0.4;" x1="697.176" x2="882.0002" y1="114.1229" y2="114.1229"/><line style="stroke:#000000;stroke-width:0.4;" x1="697.176" x2="882.0002" y1="117.3229" y2="117.3229"/><text fill="#000000" font-family="Verdana" font-size="5.6" lengthAdjust="spacing" textLength="93.9723" x="699.176" y="124.553">+parse(input: String): EMFQuery</text><text fill="#000000" font-family="Verdana" font-size="5.6" lengthAdjust="spacing" textLength="145.8789" x="699.176" y="131.3589">-parseSections(input: String): Map&lt;String, String&gt;</text><text fill="#000000" font-family="Verdana" font-size="5.6" lengthAdjust="spacing" textLength="145.4004" x="699.176" y="138.1647">-parseCommaSeparated(line: String): List&lt;String&gt;</text><text fill="#000000" font-family="Verdana" font-size="5.6" lengthAdjust="spacing" textLength="123.9027" x="699.176" y="144.9706">-parsePredicates(line: String): List&lt;String&gt;</text><text fill="#000000" font-family="Verdana" font-size="5.6" lengthAdjust="spacing" textLength="103.1488" x="699.176" y="151.7764">-convertToEMFQuery(...): EMFQuery</text><text fill="#000000" font-family="Verdana" font-size="5.6" lengthAdjust="spacing" textLength="165.9574" x="699.176" y="158.5823">-parseConditionExpression(s: String): ConditionExpression</text><text fill="#000000" font-family="Verdana" font-size="5.6" lengthAdjust="spacing" textLength="122.459" x="699.176" y="165.3882">-parseSingleCondition(s: String): Condition</text><text fill="#000000" font-family="Verdana" font-size="5.6" lengthAdjust="spacing" textLength="180.8242" x="699.176" y="172.194">-extractAggregatesFromExpression(expr: String, list: List): void</text><text fill="#000000" font-family="Verdana" font-size="5.6" lengthAdjust="spacing" textLength="149.4008" x="699.176" y="178.9999">-extractVarNameFromPredicate(pred: String): String</text><text fill="#000000" font-family="Verdana" font-size="5.6" lengthAdjust="spacing" textLength="159.5918" x="699.176" y="185.8057">-extractAllVarNames(expr: String, varNames: Set): void</text></g><!--class EMFQuery--><g class="entity" data-entity="EMFQuery" data-source-line="37" data-uid="ent0005" id="entity_EMFQuery"><rect fill="#FFFFFF" height="78.8527" rx="1" ry="1" style="stroke:#000000;stroke-width:0.4;" width="149.6398" x="556.768" y="236.3949"/><ellipse cx="615.8528" cy="241.9949" fill="#FFFFFF" rx="3.6" ry="3.6" style="stroke:#000000;stroke-width:0.4;"/><path d="M617.042,244.2521 Q616.8096,244.3717 616.5539,244.4314 Q616.2983,244.4912 616.016,244.4912 Q615.0133,244.4912 614.4854,243.8305 Q613.9575,243.1697 613.9575,241.9213 Q613.9575,240.6695 614.4854,240.0088 Q615.0133,239.348 616.016,239.348 Q616.2983,239.348 616.5573,239.4078 Q616.8162,239.4676 617.042,239.5871 L617.042,240.6762 Q616.7897,240.4438 616.5523,240.3358 Q616.3149,240.2279 616.0625,240.2279 Q615.5246,240.2279 615.2507,240.6546 Q614.9768,241.0813 614.9768,241.9213 Q614.9768,242.758 615.2507,243.1847 Q615.5246,243.6113 616.0625,243.6113 Q616.3149,243.6113 616.5523,243.5034 Q616.7897,243.3955 617.042,243.1631 Z " fill="#000000"/><text fill="#000000" font-family="Verdana" font-size="5.6" lengthAdjust="spacing" textLength="28.4703" x="622.8528" y="244.2221">EMFQuery</text><line style="stroke:#000000;stroke-width:0.4;" x1="557.168" x2="706.0078" y1="247.5949" y2="247.5949"/><text fill="#000000" font-family="Verdana" font-size="5.6" lengthAdjust="spacing" textLength="88.9438" x="559.168" y="254.825">+selectAttributes: List&lt;String&gt;</text><text fill="#000000" font-family="Verdana" font-size="5.6" lengthAdjust="spacing" textLength="54.4688" x="559.168" y="261.6309">+fromTable: String</text><text fill="#000000" font-family="Verdana" font-size="5.6" lengthAdjust="spacing" textLength="97.5734" x="559.168" y="268.4367">+groupingAttributes: List&lt;String&gt;</text><text fill="#000000" font-family="Verdana" font-size="5.6" lengthAdjust="spacing" textLength="112.0082" x="559.168" y="275.2426">+groupingVariableNames: List&lt;String&gt;</text><text fill="#000000" font-family="Verdana" font-size="5.6" lengthAdjust="spacing" textLength="144.8398" x="559.168" y="282.0484">+suchThatMap: Map&lt;String, ConditionExpression&gt;</text><text fill="#000000" font-family="Verdana" font-size="5.6" lengthAdjust="spacing" textLength="103.8379" x="559.168" y="288.8543">+fVectors: List&lt;AggregateFunction&gt;</text><text fill="#000000" font-family="Verdana" font-size="5.6" lengthAdjust="spacing" textLength="112.7137" x="559.168" y="295.6602">+whereConditions: ConditionExpression</text><text fill="#000000" font-family="Verdana" font-size="5.6" lengthAdjust="spacing" textLength="114.316" x="559.168" y="302.466">+havingConditions: ConditionExpression</text><line style="stroke:#000000;stroke-width:0.4;" x1="557.168" x2="706.0078" y1="305.2418" y2="305.2418"/><text fill="#000000" font-family="Verdana" font-size="5.6" lengthAdjust="spacing" textLength="53.7742" x="559.168" y="312.4719">+toString(): String</text></g><!--class EMFValidator--><g class="entity" data-entity="EMFValidator" data-source-line="49" data-uid="ent0006" id="entity_EMFValidator"><rect fill="#FFFFFF" height="38.0176" rx="1" ry="1" style="stroke:#000000;stroke-width:0.4;" width="102.3188" x="580.428" y="126.7429"/><ellipse cx="611.7917" cy="132.3429" fill="#FFFFFF" rx="3.6" ry="3.6" style="stroke:#000000;stroke-width:0.4;"/><path d="M612.9809,134.6001 Q612.7485,134.7197 612.4928,134.7794 Q612.2372,134.8392 611.955,134.8392 Q610.9522,134.8392 610.4243,134.1785 Q609.8964,133.5177 609.8964,132.2693 Q609.8964,131.0175 610.4243,130.3568 Q610.9522,129.696 611.955,129.696 Q612.2372,129.696 612.4962,129.7558 Q612.7551,129.8156 612.9809,129.9351 L612.9809,131.0242 Q612.7286,130.7917 612.4912,130.6838 Q612.2538,130.5759 612.0014,130.5759 Q611.4635,130.5759 611.1896,131.0026 Q610.9157,131.4292 610.9157,132.2693 Q610.9157,133.106 611.1896,133.5327 Q611.4635,133.9593 612.0014,133.9593 Q612.2538,133.9593 612.4912,133.8514 Q612.7286,133.7435 612.9809,133.5111 Z " fill="#000000"/><text fill="#000000" font-family="Verdana" font-size="5.6" lengthAdjust="spacing" textLength="36.5914" x="618.7917" y="134.5701">EMFValidator</text><line style="stroke:#000000;stroke-width:0.4;" x1="580.828" x2="682.3468" y1="137.9429" y2="137.9429"/><line style="stroke:#000000;stroke-width:0.4;" x1="580.828" x2="682.3468" y1="141.1429" y2="141.1429"/><text fill="#000000" font-family="Verdana" font-size="5.6" lengthAdjust="spacing" textLength="97.1195" x="582.828" y="148.373">+validate(query: EMFQuery): void</text><text fill="#000000" font-family="Verdana" font-size="5.6" lengthAdjust="spacing" textLength="97.5188" x="582.828" y="155.1789">-validateGroupingVariables(): void</text><text fill="#000000" font-family="Verdana" font-size="5.6" lengthAdjust="spacing" textLength="77.8695" x="582.828" y="161.9847">-validateAggregates(): void</text></g><!--class PhiConverter--><g class="entity" data-entity="PhiConverter" data-source-line="55" data-uid="ent0007" id="entity_PhiConverter"><rect fill="#FFFFFF" height="24.4059" rx="1" ry="1" style="stroke:#000000;stroke-width:0.4;" width="134.2508" x="432.064" y="133.5509"/><ellipse cx="479.5482" cy="139.1509" fill="#FFFFFF" rx="3.6" ry="3.6" style="stroke:#000000;stroke-width:0.4;"/><path d="M480.7374,141.4081 Q480.505,141.5277 480.2494,141.5874 Q479.9937,141.6472 479.7115,141.6472 Q478.7087,141.6472 478.1808,140.9865 Q477.6529,140.3257 477.6529,139.0773 Q477.6529,137.8255 478.1808,137.1648 Q478.7087,136.504 479.7115,136.504 Q479.9937,136.504 480.2527,136.5638 Q480.5117,136.6236 480.7374,136.7431 L480.7374,137.8322 Q480.4851,137.5998 480.2477,137.4918 Q480.0103,137.3839 479.7579,137.3839 Q479.2201,137.3839 478.9461,137.8106 Q478.6722,138.2373 478.6722,139.0773 Q478.6722,139.914 478.9461,140.3407 Q479.2201,140.7673 479.7579,140.7673 Q480.0103,140.7673 480.2477,140.6594 Q480.4851,140.5515 480.7374,140.3191 Z " fill="#000000"/><text fill="#000000" font-family="Verdana" font-size="5.6" lengthAdjust="spacing" textLength="36.2824" x="486.5482" y="141.3781">PhiConverter</text><line style="stroke:#000000;stroke-width:0.4;" x1="432.464" x2="565.9148" y1="144.7509" y2="144.7509"/><line style="stroke:#000000;stroke-width:0.4;" x1="432.464" x2="565.9148" y1="147.9509" y2="147.9509"/><text fill="#000000" font-family="Verdana" font-size="5.6" lengthAdjust="spacing" textLength="129.4508" x="434.464" y="155.181">+convert(emfQuery: EMFQuery): PhiOperator</text></g><!--class PhiOperator--><g class="entity" data-entity="PhiOperator" data-source-line="59" data-uid="ent0008" id="entity_PhiOperator"><rect fill="#FFFFFF" height="78.8527" rx="1" ry="1" style="stroke:#000000;stroke-width:0.4;" width="145.2266" x="349.776" y="236.3949"/><ellipse cx="404.1699" cy="241.9949" fill="#FFFFFF" rx="3.6" ry="3.6" style="stroke:#000000;stroke-width:0.4;"/><path d="M405.3592,244.2521 Q405.1268,244.3717 404.8711,244.4314 Q404.6155,244.4912 404.3332,244.4912 Q403.3305,244.4912 402.8026,243.8305 Q402.2746,243.1697 402.2746,241.9213 Q402.2746,240.6695 402.8026,240.0088 Q403.3305,239.348 404.3332,239.348 Q404.6155,239.348 404.8744,239.4078 Q405.1334,239.4676 405.3592,239.5871 L405.3592,240.6762 Q405.1069,240.4438 404.8695,240.3358 Q404.6321,240.2279 404.3797,240.2279 Q403.8418,240.2279 403.5679,240.6546 Q403.294,241.0813 403.294,241.9213 Q403.294,242.758 403.5679,243.1847 Q403.8418,243.6113 404.3797,243.6113 Q404.6321,243.6113 404.8695,243.5034 Q405.1069,243.3955 405.3592,243.1631 Z " fill="#000000"/><text fill="#000000" font-family="Verdana" font-size="5.6" lengthAdjust="spacing" textLength="33.4387" x="411.1699" y="244.2221">PhiOperator</text><line style="stroke:#000000;stroke-width:0.4;" x1="350.176" x2="494.6026" y1="247.5949" y2="247.5949"/><text fill="#000000" font-family="Verdana" font-size="5.6" lengthAdjust="spacing" textLength="88.9438" x="352.176" y="254.825">+selectAttributes: List&lt;String&gt;</text><text fill="#000000" font-family="Verdana" font-size="5.6" lengthAdjust="spacing" textLength="19.9254" x="352.176" y="261.6309">+n: int</text><text fill="#000000" font-family="Verdana" font-size="5.6" lengthAdjust="spacing" textLength="97.5734" x="352.176" y="268.4367">+groupingAttributes: List&lt;String&gt;</text><text fill="#000000" font-family="Verdana" font-size="5.6" lengthAdjust="spacing" textLength="95.1316" x="352.176" y="275.2426">+fVect: List&lt;AggregateFunction&gt;</text><text fill="#000000" font-family="Verdana" font-size="5.6" lengthAdjust="spacing" textLength="140.4266" x="352.176" y="282.0484">+predicates: Map&lt;Integer, ConditionExpression&gt;</text><text fill="#000000" font-family="Verdana" font-size="5.6" lengthAdjust="spacing" textLength="84.834" x="352.176" y="288.8543">+having: ConditionExpression</text><text fill="#000000" font-family="Verdana" font-size="5.6" lengthAdjust="spacing" textLength="54.4688" x="352.176" y="295.6602">+fromTable: String</text><text fill="#000000" font-family="Verdana" font-size="5.6" lengthAdjust="spacing" textLength="112.0082" x="352.176" y="302.466">+groupingVariableNames: List&lt;String&gt;</text><line style="stroke:#000000;stroke-width:0.4;" x1="350.176" x2="494.6026" y1="305.2418" y2="305.2418"/><text fill="#000000" font-family="Verdana" font-size="5.6" lengthAdjust="spacing" textLength="53.7742" x="352.176" y="312.4719">+toString(): String</text></g><!--class QueryGenerator--><g class="entity" data-entity="QueryGenerator" data-source-line="71" data-uid="ent0009" id="entity_QueryGenerator"><rect fill="#FFFFFF" height="119.6879" rx="1" ry="1" style="stroke:#000000;stroke-width:0.4;" width="213.575" x="4.8" y="85.9069"/><ellipse cx="87.4387" cy="91.5069" fill="#FFFFFF" rx="3.6" ry="3.6" style="stroke:#000000;stroke-width:0.4;"/><path d="M88.6279,93.7641 Q88.3955,93.8837 88.1398,93.9434 Q87.8842,94.0032 87.602,94.0032 Q86.5992,94.0032 86.0713,93.3425 Q85.5434,92.6817 85.5434,91.4333 Q85.5434,90.1815 86.0713,89.5208 Q86.5992,88.86 87.602,88.86 Q87.8842,88.86 88.1432,88.9198 Q88.4021,88.9796 88.6279,89.0991 L88.6279,90.1882 Q88.3756,89.9558 88.1382,89.8478 Q87.9008,89.7399 87.6484,89.7399 Q87.1105,89.7399 86.8366,90.1666 Q86.5627,90.5933 86.5627,91.4333 Q86.5627,92.27 86.8366,92.6967 Q87.1105,93.1233 87.6484,93.1233 Q87.9008,93.1233 88.1382,93.0154 Q88.3756,92.9075 88.6279,92.6751 Z " fill="#000000"/><text fill="#000000" font-family="Verdana" font-size="5.6" lengthAdjust="spacing" textLength="45.2977" x="94.4387" y="93.7341">QueryGenerator</text><line style="stroke:#000000;stroke-width:0.4;" x1="5.2" x2="217.975" y1="97.1069" y2="97.1069"/><text fill="#000000" font-family="Verdana" font-size="5.6" lengthAdjust="spacing" textLength="49.0629" x="7.2" y="104.337">-phi: PhiOperator</text><text fill="#000000" font-family="Verdana" font-size="5.6" lengthAdjust="spacing" textLength="102.6813" x="7.2" y="111.1429">-columnTypes: Map&lt;String, String&gt;</text><line style="stroke:#000000;stroke-width:0.4;" x1="5.2" x2="217.975" y1="113.9186" y2="113.9186"/><text fill="#000000" font-family="Verdana" font-size="5.6" lengthAdjust="spacing" textLength="101.4863" x="7.2" y="121.1487">+QueryGenerator(phi: PhiOperator)</text><text fill="#000000" font-family="Verdana" font-size="5.6" lengthAdjust="spacing" textLength="56.175" x="7.2" y="127.9546">+generate(): String</text><text fill="#000000" font-family="Verdana" font-size="5.6" lengthAdjust="spacing" textLength="73.5547" x="7.2" y="134.7604">-loadColumnTypes(): void</text><text fill="#000000" font-family="Verdana" font-size="5.6" lengthAdjust="spacing" textLength="79.1656" x="7.2" y="141.5663">-generateMFStruct(): String</text><text fill="#000000" font-family="Verdana" font-size="5.6" lengthAdjust="spacing" textLength="74.3969" x="7.2" y="148.3722">-generateLookup(): String</text><text fill="#000000" font-family="Verdana" font-size="5.6" lengthAdjust="spacing" textLength="64.9414" x="7.2" y="155.178">-generateAdd(): String</text><text fill="#000000" font-family="Verdana" font-size="5.6" lengthAdjust="spacing" textLength="73.5328" x="7.2" y="161.9839">-generateOutput(): String</text><text fill="#000000" font-family="Verdana" font-size="5.6" lengthAdjust="spacing" textLength="71.348" x="7.2" y="168.7897">-generateScan0(): String</text><text fill="#000000" font-family="Verdana" font-size="5.6" lengthAdjust="spacing" textLength="70.7055" x="7.2" y="175.5956">-generateScans(): String</text><text fill="#000000" font-family="Verdana" font-size="5.6" lengthAdjust="spacing" textLength="208.775" x="7.2" y="182.4015">-buildCondition(cond: ConditionExpression, rs: String, idx: String): String</text><text fill="#000000" font-family="Verdana" font-size="5.6" lengthAdjust="spacing" textLength="62.1852" x="7.2" y="189.2073">-buildHaving(): String</text><text fill="#000000" font-family="Verdana" font-size="5.6" lengthAdjust="spacing" textLength="134.6188" x="7.2" y="196.0132">-translateExpr(expr: String, idx: String): String</text><text fill="#000000" font-family="Verdana" font-size="5.6" lengthAdjust="spacing" textLength="125.0266" x="7.2" y="202.819">-fieldName(agg: AggregateFunction): String</text></g><!--class AggregateFunction--><g class="entity" data-entity="AggregateFunction" data-source-line="89" data-uid="ent0010" id="entity_AggregateFunction"><rect fill="#FFFFFF" height="65.241" rx="1" ry="1" style="stroke:#000000;stroke-width:0.4;" width="162.3164" x="341.228" y="346.0469"/><ellipse cx="394.468" cy="351.6469" fill="#FFFFFF" rx="3.6" ry="3.6" style="stroke:#000000;stroke-width:0.4;"/><path d="M395.6573,353.9041 Q395.4249,354.0237 395.1692,354.0834 Q394.9135,354.1432 394.6313,354.1432 Q393.6286,354.1432 393.1007,353.4825 Q392.5727,352.8217 392.5727,351.5733 Q392.5727,350.3215 393.1007,349.6608 Q393.6286,349 394.6313,349 Q394.9135,349 395.1725,349.0598 Q395.4315,349.1196 395.6573,349.2391 L395.6573,350.3282 Q395.405,350.0958 395.1676,349.9878 Q394.9301,349.8799 394.6778,349.8799 Q394.1399,349.8799 393.866,350.3066 Q393.5921,350.7333 393.5921,351.5733 Q393.5921,352.41 393.866,352.8367 Q394.1399,353.2633 394.6778,353.2633 Q394.9301,353.2633 395.1676,353.1554 Q395.405,353.0475 395.6573,352.8151 Z " fill="#000000"/><text fill="#000000" font-family="Verdana" font-size="5.6" lengthAdjust="spacing" textLength="52.8363" x="401.468" y="353.8741">AggregateFunction</text><line style="stroke:#000000;stroke-width:0.4;" x1="341.628" x2="503.1444" y1="357.2469" y2="357.2469"/><text fill="#000000" font-family="Verdana" font-size="5.6" lengthAdjust="spacing" textLength="63.0438" x="343.628" y="364.477">-functionName: String</text><text fill="#000000" font-family="Verdana" font-size="5.6" lengthAdjust="spacing" textLength="74.8453" x="343.628" y="371.2829">-groupingVarName: String</text><text fill="#000000" font-family="Verdana" font-size="5.6" lengthAdjust="spacing" textLength="48.3273" x="343.628" y="378.0887">-attribute: String</text><line style="stroke:#000000;stroke-width:0.4;" x1="341.628" x2="503.1444" y1="380.8645" y2="380.8645"/><text fill="#000000" font-family="Verdana" font-size="5.6" lengthAdjust="spacing" textLength="157.5164" x="343.628" y="388.0946">+AggregateFunction(fn: String, gv: String, attr: String)</text><text fill="#000000" font-family="Verdana" font-size="5.6" lengthAdjust="spacing" textLength="80.4508" x="343.628" y="394.9004">+getFunctionName(): String</text><text fill="#000000" font-family="Verdana" font-size="5.6" lengthAdjust="spacing" textLength="91.8559" x="343.628" y="401.7063">+getGroupingVarName(): String</text><text fill="#000000" font-family="Verdana" font-size="5.6" lengthAdjust="spacing" textLength="64.9496" x="343.628" y="408.5122">+getAttribute(): String</text></g><!--class ConditionExpression--><g class="entity" data-entity="ConditionExpression" data-source-line="99" data-uid="ent0011" id="entity_ConditionExpression"><rect fill="#FFFFFF" height="31.2117" rx="1" ry="1" style="stroke:#000000;stroke-width:0.4;" width="87.8922" x="552.44" y="363.0629"/><ellipse cx="566.5245" cy="368.6629" fill="#FFFFFF" rx="3.6" ry="3.6" style="stroke:#000000;stroke-width:0.4;"/><path d="M567.7138,370.9201 Q567.4813,371.0397 567.2257,371.0994 Q566.97,371.1592 566.6878,371.1592 Q565.6851,371.1592 565.1571,370.4985 Q564.6292,369.8377 564.6292,368.5893 Q564.6292,367.3375 565.1571,366.6768 Q565.6851,366.016 566.6878,366.016 Q566.97,366.016 567.229,366.0758 Q567.488,366.1356 567.7138,366.2551 L567.7138,367.3442 Q567.4614,367.1118 567.224,367.0038 Q566.9866,366.8959 566.7343,366.8959 Q566.1964,366.8959 565.9225,367.3226 Q565.6485,367.7493 565.6485,368.5893 Q565.6485,369.426 565.9225,369.8527 Q566.1964,370.2793 566.7343,370.2793 Q566.9866,370.2793 567.224,370.1714 Q567.4614,370.0635 567.7138,369.8311 Z " fill="#000000"/><text fill="#000000" font-family="Verdana" font-size="5.6" lengthAdjust="spacing" textLength="56.9488" x="573.2988" y="370.8901">ConditionExpression</text><line style="stroke:#000000;stroke-width:0.4;" x1="552.84" x2="639.9322" y1="374.2629" y2="374.2629"/><text fill="#000000" font-family="Verdana" font-size="5.6" lengthAdjust="spacing" textLength="83.0922" x="554.84" y="381.493">+conditions: List&lt;Condition&gt;</text><text fill="#000000" font-family="Verdana" font-size="5.6" lengthAdjust="spacing" textLength="71.9223" x="554.84" y="388.2989">+operators: List&lt;String&gt;</text><line style="stroke:#000000;stroke-width:0.4;" x1="552.84" x2="639.9322" y1="391.0746" y2="391.0746"/></g><!--class Condition--><g class="entity" data-entity="Condition" data-source-line="104" data-uid="ent0012" id="entity_Condition"><rect fill="#FFFFFF" height="51.6293" rx="1" ry="1" style="stroke:#000000;stroke-width:0.4;" width="92.5215" x="550.128" y="442.0909"/><ellipse cx="581.6065" cy="447.6909" fill="#FFFFFF" rx="3.6" ry="3.6" style="stroke:#000000;stroke-width:0.4;"/><path d="M582.7958,449.9481 Q582.5634,450.0677 582.3077,450.1274 Q582.052,450.1872 581.7698,450.1872 Q580.7671,450.1872 580.2391,449.5265 Q579.7112,448.8657 579.7112,447.6173 Q579.7112,446.3655 580.2391,445.7048 Q580.7671,445.044 581.7698,445.044 Q582.052,445.044 582.311,445.1038 Q582.57,445.1636 582.7958,445.2831 L582.7958,446.3722 Q582.5434,446.1398 582.306,446.0318 Q582.0686,445.9239 581.8163,445.9239 Q581.2784,445.9239 581.0045,446.3506 Q580.7305,446.7773 580.7305,447.6173 Q580.7305,448.454 581.0045,448.8807 Q581.2784,449.3073 581.8163,449.3073 Q582.0686,449.3073 582.306,449.1994 Q582.5434,449.0915 582.7958,448.8591 Z " fill="#000000"/><text fill="#000000" font-family="Verdana" font-size="5.6" lengthAdjust="spacing" textLength="26.5645" x="588.6065" y="449.9181">Condition</text><line style="stroke:#000000;stroke-width:0.4;" x1="550.528" x2="642.2495" y1="453.2909" y2="453.2909"/><text fill="#000000" font-family="Verdana" font-size="5.6" lengthAdjust="spacing" textLength="35.1367" x="552.528" y="460.521">+left: String</text><text fill="#000000" font-family="Verdana" font-size="5.6" lengthAdjust="spacing" textLength="50.0609" x="552.528" y="467.3269">+operator: String</text><text fill="#000000" font-family="Verdana" font-size="5.6" lengthAdjust="spacing" textLength="39.2547" x="552.528" y="474.1327">+right: String</text><text fill="#000000" font-family="Verdana" font-size="5.6" lengthAdjust="spacing" textLength="53.9246" x="552.528" y="480.9386">+negated: boolean</text><line style="stroke:#000000;stroke-width:0.4;" x1="550.528" x2="642.2495" y1="483.7144" y2="483.7144"/><text fill="#000000" font-family="Verdana" font-size="5.6" lengthAdjust="spacing" textLength="87.7215" x="552.528" y="490.9444">+Condition(left, op, right, neg)</text></g><!--link Main to EMFParser--><g class="link" data-entity-1="Main" data-entity-2="EMFParser" data-source-line="113" data-uid="lnk13" id="link_Main_EMFParser"><path codeLine="113" d="M473.888,55.2349 C451.876,68.5749 421.0684,87.2429 391.8324,104.9629" fill="none" id="Main-to-EMFParser" style="stroke:#000000;stroke-width:0.4;"/><polygon fill="#000000" points="389.78,106.2069,393.688,105.7092,391.4904,105.1703,392.0293,102.9727,389.78,106.2069" style="stroke:#000000;stroke-width:0.4;"/><text fill="#000000" font-family="Verdana" font-size="5.2" lengthAdjust="spacing" textLength="11.8066" x="452.924" y="72.7349">uses</text></g><!--link Main to PhiInputParser--><g class="link" data-entity-1="Main" data-entity-2="PhiInputParser" data-source-line="114" data-uid="lnk14" id="link_Main_PhiInputParser"><path codeLine="114" d="M544.416,46.8949 C583.76,53.8909 641.792,66.4469 689.588,85.9069 C701.14,90.6109 710.8368,95.3395 722.0888,101.5755" fill="none" id="Main-to-PhiInputParser" style="stroke:#000000;stroke-width:0.4;"/><polygon fill="#000000" points="724.188,102.7389,721.8148,99.5944,722.4387,101.7694,720.2636,102.3933,724.188,102.7389" style="stroke:#000000;stroke-width:0.4;"/><text fill="#000000" font-family="Verdana" font-size="5.2" lengthAdjust="spacing" textLength="11.8066" x="654.792" y="72.7349">uses</text></g><!--link Main to EMFValidator--><g class="link" data-entity-1="Main" data-entity-2="EMFValidator" data-source-line="115" data-uid="lnk15" id="link_Main_EMFValidator"><path codeLine="115" d="M527.3,55.2429 C541.588,63.5629 558.9,74.4669 573.188,85.9069 C588.6,98.2509 602.5668,112.5539 613.7548,124.8779" fill="none" id="Main-to-EMFValidator" style="stroke:#000000;stroke-width:0.4;"/><polygon fill="#000000" points="615.368,126.6549,614.1329,122.914,614.0237,125.1741,611.7636,125.0649,615.368,126.6549" style="stroke:#000000;stroke-width:0.4;"/><text fill="#000000" font-family="Verdana" font-size="5.2" lengthAdjust="spacing" textLength="11.8066" x="556.284" y="72.7349">uses</text></g><!--link Main to PhiConverter--><g class="link" data-entity-1="Main" data-entity-2="PhiConverter" data-source-line="116" data-uid="lnk16" id="link_Main_PhiConverter"><path codeLine="116" d="M499.188,55.2349 C499.188,76.4269 499.188,111.8229 499.188,131.0349" fill="none" id="Main-to-PhiConverter" style="stroke:#000000;stroke-width:0.4;"/><polygon fill="#000000" points="499.188,133.4349,500.788,129.8349,499.188,131.4349,497.588,129.8349,499.188,133.4349" style="stroke:#000000;stroke-width:0.4;"/><text fill="#000000" font-family="Verdana" font-size="5.2" lengthAdjust="spacing" textLength="11.8066" x="499.588" y="72.7349">uses</text></g><!--link Main to QueryGenerator--><g class="link" data-entity-1="Main" data-entity-2="QueryGenerator" data-source-line="117" data-uid="lnk17" id="link_Main_QueryGenerator"><path codeLine="117" d="M453.88,43.1109 C398.66,48.0189 303.088,59.7269 225.188,85.9069 C222.972,86.6509 223.0008,86.6073 220.7688,87.4273" fill="none" id="Main-to-QueryGenerator" style="stroke:#000000;stroke-width:0.4;"/><polygon fill="#000000" points="218.516,88.2549,222.4469,88.5153,220.3933,87.5652,221.3434,85.5116,218.516,88.2549" style="stroke:#000000;stroke-width:0.4;"/><text fill="#000000" font-family="Verdana" font-size="5.2" lengthAdjust="spacing" textLength="11.8066" x="291.524" y="72.7349">uses</text></g><!--link EMFParser to EMFQuery--><g class="link" data-entity-1="EMFParser" data-entity-2="EMFQuery" data-source-line="119" data-uid="lnk18" id="link_EMFParser_EMFQuery"><path codeLine="119" d="M381.728,185.3749 C395.424,193.2629 410.392,200.6389 425.188,205.5949 C471.148,220.9949 487.6,202.2709 533.588,217.5949 C547.408,222.2029 559.309,227.777 572.225,235.053" fill="none" id="EMFParser-to-EMFQuery" style="stroke:#000000;stroke-width:0.4;"/><polygon fill="#000000" points="574.316,236.2309,571.9647,233.07,572.5735,235.2493,570.3941,235.858,574.316,236.2309" style="stroke:#000000;stroke-width:0.4;"/><text fill="#000000" font-family="Verdana" font-size="5.2" lengthAdjust="spacing" textLength="19.0049" x="551.26" y="223.2229">creates</text></g><!--link PhiInputParser to EMFQuery--><g class="link" data-entity-1="PhiInputParser" data-entity-2="EMFQuery" data-source-line="120" data-uid="lnk19" id="link_PhiInputParser_EMFQuery"><path codeLine="120" d="M737.524,188.7469 C718.82,204.0509 699.6894,219.7031 681.3574,234.7031" fill="none" id="PhiInputParser-to-EMFQuery" style="stroke:#000000;stroke-width:0.4;"/><polygon fill="#000000" points="679.5,236.2229,683.2994,235.1815,681.0479,234.9564,681.2729,232.7049,679.5,236.2229" style="stroke:#000000;stroke-width:0.4;"/><text fill="#000000" font-family="Verdana" font-size="5.2" lengthAdjust="spacing" textLength="19.0049" x="701.528" y="223.2229">creates</text></g><!--link EMFParser to ConditionExpression--><g class="link" data-entity-1="EMFParser" data-entity-2="ConditionExpression" data-source-line="121" data-uid="lnk20" id="link_EMFParser_ConditionExpression"><path codeLine="121" d="M384.152,185.3669 C397.268,192.8949 411.388,200.1229 425.188,205.5949 C448.04,214.6589 457.092,206.8109 479.188,217.5949 C490.992,223.3589 494.452,225.6389 501.988,236.3949 C523.328,266.8509 508.132,285.1589 529.988,315.2469 C535.128,322.3269 539.02,321.4709 545.588,327.2469 C558.492,338.6029 570.5328,350.741 580.4488,361.153" fill="none" id="EMFParser-to-ConditionExpression" style="stroke:#000000;stroke-width:0.4;"/><polygon fill="#000000" points="582.104,362.8909,580.7799,359.1806,580.7247,361.4426,578.4626,361.3874,582.104,362.8909" style="stroke:#000000;stroke-width:0.4;"/><text fill="#000000" font-family="Verdana" font-size="5.2" lengthAdjust="spacing" textLength="19.0049" x="530.388" y="278.0509">creates</text></g><!--link EMFParser to Condition--><g class="link" data-entity-1="EMFParser" data-entity-2="Condition" data-source-line="122" data-uid="lnk21" id="link_EMFParser_Condition"><path codeLine="122" d="M279.828,185.3349 C266.772,199.7869 254.596,217.3309 249.188,236.3949 C239.624,270.1109 236.748,282.4829 249.188,315.2469 C269.44,368.5949 285.104,382.5309 334.388,411.2909 C402.392,450.9749 492.6007,462.6095 547.5527,466.0375" fill="none" id="EMFParser-to-Condition" style="stroke:#000000;stroke-width:0.4;"/><polygon fill="#000000" points="549.948,466.1869,546.4546,464.3659,547.9519,466.0624,546.2554,467.5597,549.948,466.1869" style="stroke:#000000;stroke-width:0.4;"/><text fill="#000000" font-family="Verdana" font-size="5.2" lengthAdjust="spacing" textLength="19.0049" x="256.928" y="332.8749">creates</text></g><!--link EMFParser to AggregateFunction--><g class="link" data-entity-1="EMFParser" data-entity-2="AggregateFunction" data-source-line="123" data-uid="lnk22" id="link_EMFParser_AggregateFunction"><path codeLine="123" d="M314.34,185.3749 C306.664,221.4429 301.204,275.2389 323.188,315.2469 C329.868,327.4069 338.0708,336.1273 349.3468,344.4713" fill="none" id="EMFParser-to-AggregateFunction" style="stroke:#000000;stroke-width:0.4;"/><polygon fill="#000000" points="351.276,345.8989,349.3339,342.4714,349.6683,344.7093,347.4304,345.0437,351.276,345.8989" style="stroke:#000000;stroke-width:0.4;"/><text fill="#000000" font-family="Verdana" font-size="5.2" lengthAdjust="spacing" textLength="19.0049" x="323.588" y="278.0509">creates</text></g><!--link PhiInputParser to ConditionExpression--><g class="link" data-entity-1="PhiInputParser" data-entity-2="ConditionExpression" data-source-line="124" data-uid="lnk23" id="link_PhiInputParser_ConditionExpression"><path codeLine="124" d="M792.268,188.6149 C792.336,226.0189 786.556,279.8989 757.188,315.2469 C728.156,350.1869 679.5302,365.3968 642.7422,372.3568" fill="none" id="PhiInputParser-to-ConditionExpression" style="stroke:#000000;stroke-width:0.4;"/><polygon fill="#000000" points="640.384,372.8029,644.2187,373.7058,642.3491,372.4311,643.6238,370.5616,640.384,372.8029" style="stroke:#000000;stroke-width:0.4;"/><text fill="#000000" font-family="Verdana" font-size="5.2" lengthAdjust="spacing" textLength="19.0049" x="789.04" y="278.0509">creates</text></g><!--link PhiInputParser to Condition--><g class="link" data-entity-1="PhiInputParser" data-entity-2="Condition" data-source-line="125" data-uid="lnk24" id="link_PhiInputParser_Condition"><path codeLine="125" d="M808.212,188.6549 C820.9,224.3629 832.032,275.7429 811.588,315.2469 C776.276,383.4829 696.9405,426.7502 644.9845,449.1102" fill="none" id="PhiInputParser-to-Condition" style="stroke:#000000;stroke-width:0.4;"/><polygon fill="#000000" points="642.78,450.0589,646.7193,450.1055,644.6171,449.2683,645.4543,447.1661,642.78,450.0589" style="stroke:#000000;stroke-width:0.4;"/><text fill="#000000" font-family="Verdana" font-size="5.2" lengthAdjust="spacing" textLength="19.0049" x="803.872" y="332.8749">creates</text></g><!--link PhiInputParser to AggregateFunction--><g class="link" data-entity-1="PhiInputParser" data-entity-2="AggregateFunction" data-source-line="126" data-uid="lnk25" id="link_PhiInputParser_AggregateFunction"><path codeLine="126" d="M760.036,188.7269 C750.852,203.3469 741.328,220.1389 734.388,236.3949 C720.16,269.7309 740.992,291.5269 713.588,315.2469 C695.864,330.5909 631.804,322.8069 608.788,327.2469 C573.948,333.9709 538.3956,343.1833 505.9476,352.4593" fill="none" id="PhiInputParser-to-AggregateFunction" style="stroke:#000000;stroke-width:0.4;"/><polygon fill="#000000" points="503.64,353.1189,507.5411,353.6678,505.563,352.5692,506.6616,350.591,503.64,353.1189" style="stroke:#000000;stroke-width:0.4;"/><text fill="#000000" font-family="Verdana" font-size="5.2" lengthAdjust="spacing" textLength="19.0049" x="734.788" y="278.0509">creates</text></g><!--link EMFValidator to EMFQuery--><g class="link" data-entity-1="EMFValidator" data-entity-2="EMFQuery" data-source-line="128" data-uid="lnk26" id="link_EMFValidator_EMFQuery"><path codeLine="128" d="M631.588,164.9509 C631.588,183.5749 631.588,210.2669 631.588,233.9189" fill="none" id="EMFValidator-to-EMFQuery" style="stroke:#000000;stroke-width:0.4;"/><polygon fill="#000000" points="631.588,236.3189,633.188,232.7189,631.588,234.3189,629.988,232.7189,631.588,236.3189" style="stroke:#000000;stroke-width:0.4;"/><text fill="#000000" font-family="Verdana" font-size="5.2" lengthAdjust="spacing" textLength="23.273" x="631.988" y="223.2229">validates</text></g><!--link PhiConverter to EMFQuery--><g class="link" data-entity-1="PhiConverter" data-entity-2="EMFQuery" data-source-line="129" data-uid="lnk27" id="link_PhiConverter_EMFQuery"><path codeLine="129" d="M511.852,158.0669 C526.804,172.1709 552.368,196.4269 573.988,217.5949 C580.112,223.5949 584.8613,228.2915 591.1373,234.5555" fill="none" id="PhiConverter-to-EMFQuery" style="stroke:#000000;stroke-width:0.4;"/><polygon fill="#000000" points="592.836,236.2509,591.4183,232.5753,591.4204,234.8381,589.1577,234.8402,592.836,236.2509" style="stroke:#000000;stroke-width:0.4;"/><text fill="#000000" font-family="Verdana" font-size="5.2" lengthAdjust="spacing" textLength="14.3889" x="580.7" y="223.2229">reads</text></g><!--link PhiConverter to PhiOperator--><g class="link" data-entity-1="PhiConverter" data-entity-2="PhiOperator" data-source-line="130" data-uid="lnk28" id="link_PhiConverter_PhiOperator"><path codeLine="130" d="M492.1,158.0829 C481.628,175.7069 462.7699,207.4516 446.8379,234.2676" fill="none" id="PhiConverter-to-PhiOperator" style="stroke:#000000;stroke-width:0.4;"/><polygon fill="#000000" points="445.612,236.3309,448.8263,234.0532,446.6336,234.6115,446.0753,232.4187,445.612,236.3309" style="stroke:#000000;stroke-width:0.4;"/><text fill="#000000" font-family="Verdana" font-size="5.2" lengthAdjust="spacing" textLength="19.0049" x="456.588" y="223.2229">creates</text></g><!--link QueryGenerator to PhiOperator--><g class="link" data-entity-1="QueryGenerator" data-entity-2="PhiOperator" data-source-line="132" data-uid="lnk29" id="link_QueryGenerator_PhiOperator"><path codeLine="132" d="M218.468,202.8869 C220.72,203.8189 222.96,204.7229 225.188,205.5949 C273.896,224.6789 289.66,218.4229 338.788,236.3949 C342.36,237.7029 343.761,238.2082 347.405,239.6722" fill="none" id="QueryGenerator-to-PhiOperator" style="stroke:#000000;stroke-width:0.4;"/><polygon fill="#000000" points="349.632,240.5669,346.888,237.7402,347.7762,239.8213,345.695,240.7095,349.632,240.5669" style="stroke:#000000;stroke-width:0.4;"/><text fill="#000000" font-family="Verdana" font-size="5.2" lengthAdjust="spacing" textLength="11.8066" x="296.008" y="223.2229">uses</text></g><!--link QueryGenerator to AggregateFunction--><g class="link" data-entity-1="QueryGenerator" data-entity-2="AggregateFunction" data-source-line="133" data-uid="lnk30" id="link_QueryGenerator_AggregateFunction"><path codeLine="133" d="M166.788,205.6949 C200.792,240.3029 246.464,283.2509 291.988,315.2469 C307.012,325.8109 312.304,325.9469 328.788,334.0469 C336.692,337.9349 342.8311,340.9151 351.0991,344.8711" fill="none" id="QueryGenerator-to-AggregateFunction" style="stroke:#000000;stroke-width:0.4;"/><polygon fill="#000000" points="353.264,345.9069,350.7072,342.9098,351.4599,345.0437,349.326,345.7964,353.264,345.9069" style="stroke:#000000;stroke-width:0.4;"/><text fill="#000000" font-family="Verdana" font-size="5.2" lengthAdjust="spacing" textLength="11.8066" x="292.388" y="278.0509">uses</text></g><!--link EMFQuery to ConditionExpression--><g class="link" data-entity-1="EMFQuery" data-entity-2="ConditionExpression" data-source-line="135" data-uid="lnk31" id="link_EMFQuery_ConditionExpression"><path codeLine="135" d="M618.08,315.3829 C612.36,331.9669 606.8103,348.046 602.4743,360.622" fill="none" id="EMFQuery-to-ConditionExpression" style="stroke:#000000;stroke-width:0.4;"/><polygon fill="#000000" points="601.692,362.8909,604.3781,360.0091,602.3439,361.0002,601.3528,358.966,601.692,362.8909" style="stroke:#000000;stroke-width:0.4;"/><text fill="#000000" font-family="Verdana" font-size="5.2" lengthAdjust="spacing" textLength="21.7547" x="613.332" y="332.8749">contains</text></g><!--link EMFQuery to AggregateFunction--><g class="link" data-entity-1="EMFQuery" data-entity-2="AggregateFunction" data-source-line="136" data-uid="lnk32" id="link_EMFQuery_AggregateFunction"><path codeLine="136" d="M556.684,311.4869 C553.096,312.8229 549.516,314.0869 545.988,315.2469 C521.48,323.3149 512.636,316.4869 489.188,327.2469 C478.644,332.0869 470.1263,337.4059 460.7463,344.4179" fill="none" id="EMFQuery-to-AggregateFunction" style="stroke:#000000;stroke-width:0.4;"/><polygon fill="#000000" points="458.824,345.8549,462.6654,344.981,460.4259,344.6574,460.7494,342.4179,458.824,345.8549" style="stroke:#000000;stroke-width:0.4;"/><text fill="#000000" font-family="Verdana" font-size="5.2" lengthAdjust="spacing" textLength="21.7547" x="489.588" y="332.8749">contains</text></g><!--link PhiOperator to ConditionExpression--><g class="link" data-entity-1="PhiOperator" data-entity-2="ConditionExpression" data-source-line="137" data-uid="lnk33" id="link_PhiOperator_ConditionExpression"><path codeLine="137" d="M489.164,315.3829 C517.436,331.9669 546.6538,349.1008 568.0978,361.6768" fill="none" id="PhiOperator-to-ConditionExpression" style="stroke:#000000;stroke-width:0.4;"/><polygon fill="#000000" points="570.168,362.8909,567.872,359.6896,568.4428,361.8792,566.2532,362.4499,570.168,362.8909" style="stroke:#000000;stroke-width:0.4;"/><text fill="#000000" font-family="Verdana" font-size="5.2" lengthAdjust="spacing" textLength="21.7547" x="520.204" y="332.8749">contains</text></g><!--link PhiOperator to AggregateFunction--><g class="link" data-entity-1="PhiOperator" data-entity-2="AggregateFunction" data-source-line="138" data-uid="lnk34" id="link_PhiOperator_AggregateFunction"><path codeLine="138" d="M422.388,315.3829 C422.388,325.5029 422.388,333.8789 422.388,343.5989" fill="none" id="PhiOperator-to-AggregateFunction" style="stroke:#000000;stroke-width:0.4;"/><polygon fill="#000000" points="422.388,345.9989,423.988,342.3989,422.388,343.9989,420.788,342.3989,422.388,345.9989" style="stroke:#000000;stroke-width:0.4;"/><text fill="#000000" font-family="Verdana" font-size="5.2" lengthAdjust="spacing" textLength="21.7547" x="422.788" y="332.8749">contains</text></g><!--link ConditionExpression to Condition--><g class="link" data-entity-1="ConditionExpression" data-entity-2="Condition" data-source-line="139" data-uid="lnk35" id="link_ConditionExpression_Condition"><path codeLine="139" d="M596.388,394.4749 C596.388,407.5389 596.388,424.1469 596.388,439.4949" fill="none" id="ConditionExpression-to-Condition" style="stroke:#000000;stroke-width:0.4;"/><polygon fill="#000000" points="596.388,441.8949,597.988,438.2949,596.388,439.8949,594.788,438.2949,596.388,441.8949" style="stroke:#000000;stroke-width:0.4;"/><text fill="#000000" font-family="Verdana" font-size="5.2" lengthAdjust="spacing" textLength="21.7547" x="596.788" y="428.9189">contains</text></g><!--SRC=[rLV1RkCs4BthArZiOHNO3lOSB1P8lN4sGBARr44kHG-qD9Q8KAAMfDoaHV-zGqcKH8gMazwQ086aUVFuEFCuKdxHEHH0AavP6QbdLbPKqeBiQFASIL6NwLfm8Sc7pPNv7I4IJfMwr5goNQtX9X7bblq5v5CKQQOvaAljmosvbo81fP1WHTOcWNnbDCFqA6hooHqkI_wE2Fui2hoEgSpK1TaYRPdz_iVP1Ja8bZRnbGIQRXY7kA8wjvWpUn7zOpclxZRtL2gGbhWoTp4Ah_Ke3M4FDSZNbXnUjAI9taAYcIZL17r7gy_jpR9x-ALDRCYtm34nLctsA6rGt-2kiQJLhw-dWTiwoHzp-WRAR_I0pq_Zrg9CcO5SlLGIUu9NiHh10_6n7WJnWIESwLJoCiiaP5I3saXHZ1O5lBJPIyAPmZBVubyhkU_ZVSvkJ1VUtyok9_-fbMjH57GBnkGQqfYp4aQvHkZdQTAzX9GbPhEd4_2a743gHs4rn-Vdv-4j_6zwDYPvel8xBS0mz6M9aIcT7bbdRSwxJEKjT-WUunEOkiIMpVf3DKUn7qmgq8B57hKzqXq7Hyd23BmAx-QJBGhLCiFHQPi2LNU6qM-kwG9jiyAUKBkGbgxlnwOk6pDti3zpa4DZrN4ZBF9cEhm9gaMhBmwFr2VAMKfHd2tqeNq0yKzJ_i6_ZYSiwDehceg3iC60SMWShDkZCmo3xYp5KEmV9YemuKS5qcXsMEp3zpW61oihzNjiqhJoH1-hVcoq1hafDMGWvnpIDdIcZIUyVTArSpPeAdiDfLE_LPKpjzZTcEDrKJw-LdPpeP6xS1bZd-gi4zy28FP61nVKV9_OTLnFsQIx3QRK-7RsactyLeZdkZeMlKpJOw4VjSONox7eDg7bfxcWyeExcl5q6DVexJJOvoMHQfYEB7qvCbWRlkxpm0lXn2qLHo66rHktnmdt37XgZ1FJ32quSNN0CHECDSs-kpTqNeq6fqw3r9uvrzsJPU9zEUmeEmpNXg3VddMNtepKUBKouMjNKW3HpuBGiGdqS3J0-idSdCKUsnqGqPq4_wnEoIqbXxrszLaEzwbaMUu1owQ6wBgT41neDr46Inhg9H4LEj0aBmacd1af7yblW7Oo-yXPfQBcitwr-ZBw5hyWjO9HnFkwyyFE6oUGExmA_A0tfBfmD2ZfwDklXWkIuFyLE84ZJz0Hb4iJwkn9x574zB3CgfjVV2vX7ZOd8tBwujN8liKRrg517ihy6nT0Z5_Ce_MyRawHJNS3gD0kUYUqMcQAA4gDVb8kDbWOYnohUWEn3v_b3d5D6ch1_m80]--></g></svg>