<svg xmlns="http://www.w3.org/2000/svg" xmlns:xlink="http://www.w3.org/1999/xlink" contentStyleType="text/css" data-diagram-type="DESCRIPTION" height="652.8px" preserveAspectRatio="none" style="width:194px;height:652px;background:#FEFEFE;" version="1.1" viewBox="0 0 194 652" width="194.8px" zoomAndPan="magnify"><title>ESQL Processor - Data Flow Diagram</title><defs/><g><rect fill="#FEFEFE" height="652.8" style="stroke:none;stroke-width:0.4;" width="194.8" x="0" y="0"/><g class="title" data-source-line="4"><text fill="#000000" font-family="Verdana" font-size="8.8" font-weight="bold" lengthAdjust="spacing" textLength="181.7277" x="6" y="14.8473">ESQL Processor - Data Flow Diagram</text></g><!--entity user--><g class="entity" data-entity="user" data-source-line="7" data-uid="ent0002" id="entity_user"><ellipse cx="41.0719" cy="26.6949" fill="#FFFFFF" rx="3.2" ry="3.2" style="stroke:#000000;stroke-width:0.4;"/><path d="M41.0719,29.8949 L41.0719,40.6949 M35.8719,33.0949 L46.2719,33.0949 M41.0719,40.6949 L35.8719,46.6949 M41.0719,40.6949 L46.2719,46.6949" fill="none" style="stroke:#000000;stroke-width:0.4;"/><text fill="#000000" font-family="Verdana" font-size="5.6" lengthAdjust="spacing" textLength="12.7422" x="34.7008" y="53.125">User</text></g><!--entity db--><g class="entity" data-entity="db" data-source-line="8" data-uid="ent0003" id="entity_db"><path d="M55.2408,345.9629 C55.2408,341.9629 75.4748,341.9629 75.4748,341.9629 C75.4748,341.9629 95.7087,341.9629 95.7087,345.9629 L95.7087,363.1746 C95.7087,367.1746 75.4748,367.1746 75.4748,367.1746 C75.4748,367.1746 55.2408,367.1746 55.2408,363.1746 L55.2408,345.9629" fill="#FFFFFF" style="stroke:#000000;stroke-width:0.4;"/><path d="M55.2408,345.9629 C55.2408,349.9629 75.4748,349.9629 75.4748,349.9629 C75.4748,349.9629 95.7087,349.9629 95.7087,345.9629" fill="none" style="stroke:#000000;stroke-width:0.4;"/><text fill="#000000" font-family="Verdana" font-size="5.6" lengthAdjust="spacing" textLength="32.468" x="59.2408" y="357.193">PostgreSQL</text><text fill="#000000" font-family="Verdana" font-size="5.6" lengthAdjust="spacing" textLength="26.3539" x="59.2408" y="363.9989">Database</text></g><!--entity output_file--><g class="entity" data-entity="output_file" data-source-line="9" data-uid="ent0004" id="entity_output_file"><path d="M89.3048,518.6069 L89.3048,531.4128 A1,1 0 0 0 90.3048,532.4128 L156.6442,532.4128 A1,1 0 0 0 157.6442,531.4128 L157.6442,521.6069 L153.6442,517.6069 L90.3048,517.6069 A1,1 0 0 0 89.3048,518.6069" fill="#FFFFFF" style="stroke:#000000;stroke-width:0.4;"/><path d="M153.6442,517.6069 L153.6442,520.6069 A1,1 0 0 0 154.6442,521.6069 L157.6442,521.6069" fill="#FFFFFF" style="stroke:#000000;stroke-width:0.4;"/><text fill="#000000" font-family="Verdana" font-size="5.6" lengthAdjust="spacing" textLength="60.3395" x="93.3048" y="527.237">GeneratedQuery.java</text></g><!--entity results--><g class="entity" data-entity="results" data-source-line="10" data-uid="ent0005" id="entity_results"><path d="M17.4168,636.2309 L17.4168,649.0368 A1,1 0 0 0 18.4168,650.0368 L63.7289,650.0368 A1,1 0 0 0 64.7289,649.0368 L64.7289,639.2309 L60.7289,635.2309 L18.4168,635.2309 A1,1 0 0 0 17.4168,636.2309" fill="#FFFFFF" style="stroke:#000000;stroke-width:0.4;"/><path d="M60.7289,635.2309 L60.7289,638.2309 A1,1 0 0 0 61.7289,639.2309 L64.7289,639.2309" fill="#FFFFFF" style="stroke:#000000;stroke-width:0.4;"/><text fill="#000000" font-family="Verdana" font-size="5.6" lengthAdjust="spacing" textLength="39.3121" x="21.4168" y="644.861">Query Results</text></g><!--entity p1--><g class="entity" data-entity="p1" data-source-line="13" data-uid="ent0006" id="entity_p1"><rect fill="#FFFFFF" height="28.4176" rx="1" ry="1" style="stroke:#000000;stroke-width:0.4;" width="37.8238" x="56.1608" y="97.8989"/><text fill="#000000" font-family="Verdana" font-size="5.6" lengthAdjust="spacing" textLength="9.1574" x="60.1608" y="107.529">1.0</text><text fill="#000000" font-family="Verdana" font-size="5.6" lengthAdjust="spacing" textLength="15.1402" x="60.1608" y="114.3349">Input</text><text fill="#000000" font-family="Verdana" font-size="5.6" lengthAdjust="spacing" textLength="29.8238" x="60.1608" y="121.1407">Processing</text></g><!--entity p2--><g class="entity" data-entity="p2" data-source-line="14" data-uid="ent0007" id="entity_p2"><rect fill="#FFFFFF" height="28.4176" rx="1" ry="1" style="stroke:#000000;stroke-width:0.4;" width="28.6172" x="74.3648" y="163.5189"/><text fill="#000000" font-family="Verdana" font-size="5.6" lengthAdjust="spacing" textLength="9.1574" x="78.3648" y="173.149">2.0</text><text fill="#000000" font-family="Verdana" font-size="5.6" lengthAdjust="spacing" textLength="16.9914" x="78.3648" y="179.9549">Query</text><text fill="#000000" font-family="Verdana" font-size="5.6" lengthAdjust="spacing" textLength="20.6172" x="78.3648" y="186.7607">Parsing</text></g><!--entity p3--><g class="entity" data-entity="p3" data-source-line="15" data-uid="ent0008" id="entity_p3"><rect fill="#FFFFFF" height="21.6117" rx="1" ry="1" style="stroke:#000000;stroke-width:0.4;" width="35.8031" x="109.5728" y="281.5469"/><text fill="#000000" font-family="Verdana" font-size="5.6" lengthAdjust="spacing" textLength="9.1574" x="113.5728" y="291.177">3.0</text><text fill="#000000" font-family="Verdana" font-size="5.6" lengthAdjust="spacing" textLength="27.8031" x="113.5728" y="297.9829">Validation</text></g><!--entity p4--><g class="entity" data-entity="p4" data-source-line="16" data-uid="ent0009" id="entity_p4"><rect fill="#FFFFFF" height="28.4176" rx="1" ry="1" style="stroke:#000000;stroke-width:0.4;" width="39.2895" x="118.6288" y="340.3589"/><text fill="#000000" font-family="Verdana" font-size="5.6" lengthAdjust="spacing" textLength="9.1574" x="122.6288" y="349.989">4.0</text><text fill="#000000" font-family="Verdana" font-size="5.6" lengthAdjust="spacing" textLength="8.4574" x="122.6288" y="356.7949">Phi</text><text fill="#000000" font-family="Verdana" font-size="5.6" lengthAdjust="spacing" textLength="31.2895" x="122.6288" y="363.6007">Conversion</text></g><!--entity p5--><g class="entity" data-entity="p5" data-source-line="17" data-uid="ent0010" id="entity_p5"><rect fill="#FFFFFF" height="28.4176" rx="1" ry="1" style="stroke:#000000;stroke-width:0.4;" width="38.9969" x="107.5728" y="451.9869"/><text fill="#000000" font-family="Verdana" font-size="5.6" lengthAdjust="spacing" textLength="9.1574" x="111.5728" y="461.617">5.0</text><text fill="#000000" font-family="Verdana" font-size="5.6" lengthAdjust="spacing" textLength="14.134" x="111.5728" y="468.4229">Code</text><text fill="#000000" font-family="Verdana" font-size="5.6" lengthAdjust="spacing" textLength="30.9969" x="111.5728" y="475.2287">Generation</text></g><!--entity p6--><g class="entity" data-entity="p6" data-source-line="18" data-uid="ent0011" id="entity_p6"><rect fill="#FFFFFF" height="28.4176" rx="1" ry="1" style="stroke:#000000;stroke-width:0.4;" width="35.3383" x="50.6048" y="569.6109"/><text fill="#000000" font-family="Verdana" font-size="5.6" lengthAdjust="spacing" textLength="9.1574" x="54.6048" y="579.241">6.0</text><text fill="#000000" font-family="Verdana" font-size="5.6" lengthAdjust="spacing" textLength="16.9914" x="54.6048" y="586.0469">Query</text><text fill="#000000" font-family="Verdana" font-size="5.6" lengthAdjust="spacing" textLength="27.3383" x="54.6048" y="592.8527">Execution</text></g><!--entity ds1--><g class="entity" data-entity="ds1" data-source-line="21" data-uid="ent0012" id="entity_ds1"><rect fill="#FFFFFF" height="20.0117" rx="1" ry="1" style="stroke:#000000;stroke-width:0.4;" width="46.4504" x="69.0488" y="230.7349"/><rect fill="#FFFFFF" height="20.0117" rx="1" ry="1" style="stroke:#000000;stroke-width:0.4;" width="46.4504" x="67.4488" y="229.1349"/><text fill="#000000" font-family="Verdana" font-size="5.6" lengthAdjust="spacing" textLength="28.4703" x="70.6488" y="237.965">EMFQuery</text><text fill="#000000" font-family="Verdana" font-size="5.6" lengthAdjust="spacing" textLength="40.0504" x="70.6488" y="244.7709">(Internal Rep)</text></g><!--entity ds2--><g class="entity" data-entity="ds2" data-source-line="22" data-uid="ent0013" id="entity_ds2"><rect fill="#FFFFFF" height="20.0117" rx="1" ry="1" style="stroke:#000000;stroke-width:0.4;" width="43.9512" x="135.4968" y="407.5749"/><rect fill="#FFFFFF" height="20.0117" rx="1" ry="1" style="stroke:#000000;stroke-width:0.4;" width="43.9512" x="133.8968" y="405.9749"/><text fill="#000000" font-family="Verdana" font-size="5.6" lengthAdjust="spacing" textLength="33.4387" x="137.0968" y="414.805">PhiOperator</text><text fill="#000000" font-family="Verdana" font-size="5.6" lengthAdjust="spacing" textLength="37.5512" x="137.0968" y="421.6109">(6 Operands)</text></g><!--entity ds3--><g class="entity" data-entity="ds3" data-source-line="23" data-uid="ent0014" id="entity_ds3"><rect fill="#FFFFFF" height="20.0117" rx="1" ry="1" style="stroke:#000000;stroke-width:0.4;" width="32.4477" x="87.6488" y="407.5749"/><rect fill="#FFFFFF" height="20.0117" rx="1" ry="1" style="stroke:#000000;stroke-width:0.4;" width="32.4477" x="86.0488" y="405.9749"/><text fill="#000000" font-family="Verdana" font-size="5.6" lengthAdjust="spacing" textLength="21.3801" x="89.2488" y="414.805">Column</text><text fill="#000000" font-family="Verdana" font-size="5.6" lengthAdjust="spacing" textLength="26.0477" x="89.2488" y="421.6109">Metadata</text></g><!--link user to p1--><g class="link" data-entity-1="user" data-entity-2="p1" data-source-line="26" data-uid="lnk15" id="link_user_p1"><path d="M47.6288,53.0989 C53.6488,65.9549 61.5073,82.7333 67.5193,95.5773" fill="none" id="user-to-p1" style="stroke:#000000;stroke-width:0.4;"/><polygon fill="#000000" points="68.5368,97.7509,68.4597,93.8121,67.6889,95.9395,65.5615,95.1687,68.5368,97.7509" style="stroke:#000000;stroke-width:0.4;"/><text fill="#000000" font-family="Verdana" font-size="5.2" lengthAdjust="spacing" textLength="35.6256" x="66.8116" y="71.9269">ESQL Query /</text><text fill="#000000" font-family="Verdana" font-size="5.2" lengthAdjust="spacing" textLength="32.4645" x="68.3922" y="78.2466">Phi Format /</text><text fill="#000000" font-family="Verdana" font-size="5.2" lengthAdjust="spacing" textLength="44.2152" x="62.5168" y="84.5663">Interactive Input</text></g><!--link p1 to p2--><g class="link" data-entity-1="p1" data-entity-2="p2" data-source-line="28" data-uid="lnk16" id="link_p1_p2"><path d="M77.9888,126.4149 C80.2768,137.3149 82.9518,150.0621 85.2438,160.9821" fill="none" id="p1-to-p2" style="stroke:#000000;stroke-width:0.4;"/><polygon fill="#000000" points="85.7368,163.3309,86.5632,159.479,85.3259,161.3736,83.4314,160.1364,85.7368,163.3309" style="stroke:#000000;stroke-width:0.4;"/><text fill="#000000" font-family="Verdana" font-size="5.2" lengthAdjust="spacing" textLength="29.3693" x="85.5012" y="143.9469">Normalized</text><text fill="#000000" font-family="Verdana" font-size="5.2" lengthAdjust="spacing" textLength="33.3861" x="83.4928" y="150.2666">Query String</text></g><!--link p2 to ds1--><g class="link" data-entity-1="p2" data-entity-2="ds1" data-source-line="30" data-uid="lnk17" id="link_p2_ds1"><path d="M89.3088,192.0629 C89.8208,203.3149 90.4237,216.5094 90.8877,226.7054" fill="none" id="p2-to-ds1" style="stroke:#000000;stroke-width:0.4;"/><polygon fill="#000000" points="90.9968,229.1029,92.4315,225.4339,90.9058,227.105,89.2348,225.5794,90.9968,229.1029" style="stroke:#000000;stroke-width:0.4;"/><text fill="#000000" font-family="Verdana" font-size="5.2" lengthAdjust="spacing" textLength="35.1305" x="90.8048" y="209.5629">Parsed Query</text><text fill="#000000" font-family="Verdana" font-size="5.2" lengthAdjust="spacing" textLength="24.4791" x="96.1305" y="215.8826">Structure</text></g><!--link ds1 to p3--><g class="link" data-entity-1="ds1" data-entity-2="p3" data-source-line="32" data-uid="lnk18" id="link_ds1_p3"><path d="M98.8448,250.9109 C105.0568,259.8149 112.5281,270.5262 118.7361,279.4302" fill="none" id="ds1-to-p3" style="stroke:#000000;stroke-width:0.4;"/><polygon fill="#000000" points="120.1088,281.3989,119.3623,277.5307,118.9649,279.7583,116.7373,279.3609,120.1088,281.3989" style="stroke:#000000;stroke-width:0.4;"/><text fill="#000000" font-family="Verdana" font-size="5.2" lengthAdjust="spacing" textLength="26.4367" x="112.0288" y="268.3749">EMFQuery</text></g><!--link p3 to p4--><g class="link" data-entity-1="p3" data-entity-2="p4" data-source-line="33" data-uid="lnk19" id="link_p3_p4"><path d="M129.3288,303.3109 C131.1208,313.4949 133.4296,326.6151 135.3976,337.8191" fill="none" id="p3-to-p4" style="stroke:#000000;stroke-width:0.4;"/><polygon fill="#000000" points="135.8128,340.1829,136.7658,336.3604,135.4668,338.2131,133.6141,336.914,135.8128,340.1829" style="stroke:#000000;stroke-width:0.4;"/><text fill="#000000" font-family="Verdana" font-size="5.2" lengthAdjust="spacing" textLength="24.2811" x="134.9986" y="320.7869">Validated</text><text fill="#000000" font-family="Verdana" font-size="5.2" lengthAdjust="spacing" textLength="26.4367" x="133.9208" y="327.1066">EMFQuery</text></g><!--link p4 to ds2--><g class="link" data-entity-1="p4" data-entity-2="ds2" data-source-line="35" data-uid="lnk20" id="link_p4_ds2"><path d="M142.4488,368.9029 C145.8208,380.1589 149.8,393.4479 152.856,403.6479" fill="none" id="p4-to-ds2" style="stroke:#000000;stroke-width:0.4;"/><polygon fill="#000000" points="153.5448,405.9469,154.0442,402.0392,152.9708,404.0311,150.9789,402.9576,153.5448,405.9469" style="stroke:#000000;stroke-width:0.4;"/><text fill="#000000" font-family="Verdana" font-size="5.2" lengthAdjust="spacing" textLength="31.0502" x="150.0608" y="389.6029">PhiOperator</text></g><!--link db to ds3--><g class="link" data-entity-1="db" data-entity-2="ds3" data-source-line="37" data-uid="lnk21" id="link_db_ds3"><path d="M80.9928,367.2469 C86.0888,378.5909 92.593,393.0618 97.405,403.7698" fill="none" id="db-to-ds3" style="stroke:#000000;stroke-width:0.4;"/><polygon fill="#000000" points="98.3888,405.9589,98.3726,402.0194,97.569,404.1347,95.4537,403.3311,98.3888,405.9589" style="stroke:#000000;stroke-width:0.4;"/><text fill="#000000" font-family="Verdana" font-size="5.2" lengthAdjust="spacing" textLength="13.5662" x="98.2672" y="386.4029">JDBC</text><text fill="#000000" font-family="Verdana" font-size="5.2" lengthAdjust="spacing" textLength="24.1871" x="92.9568" y="392.7226">Metadata</text></g><!--link ds2 to p5--><g class="link" data-entity-1="ds2" data-entity-2="p5" data-source-line="39" data-uid="lnk22" id="link_ds2_p5"><path d="M150.2488,427.7309 C145.9328,434.8229 141.4405,442.1968 136.7565,449.8928" fill="none" id="ds2-to-p5" style="stroke:#000000;stroke-width:0.4;"/><polygon fill="#000000" points="135.5088,451.9429,138.7472,449.6996,136.5486,450.2345,136.0137,448.0359,135.5088,451.9429" style="stroke:#000000;stroke-width:0.4;"/></g><!--link ds3 to p5--><g class="link" data-entity-1="ds3" data-entity-2="p5" data-source-line="40" data-uid="lnk23" id="link_ds3_p5"><path d="M108.2808,427.7309 C111.7808,434.8229 115.3702,442.095 119.1702,449.791" fill="none" id="ds3-to-p5" style="stroke:#000000;stroke-width:0.4;"/><polygon fill="#000000" points="120.2328,451.9429,120.0736,448.0066,119.3473,450.1496,117.2043,449.4233,120.2328,451.9429" style="stroke:#000000;stroke-width:0.4;"/></g><!--link p5 to output_file--><g class="link" data-entity-1="p5" data-entity-2="output_file" data-source-line="42" data-uid="lnk24" id="link_p5_output_file"><path d="M126.2088,480.4909 C125.4848,492.1589 124.6291,505.9515 124.0611,515.1235" fill="none" id="p5-to-output_file" style="stroke:#000000;stroke-width:0.4;"/><polygon fill="#000000" points="123.9128,517.5189,125.7322,514.0247,124.0364,515.5227,122.5383,513.8269,123.9128,517.5189" style="stroke:#000000;stroke-width:0.4;"/><text fill="#000000" font-family="Verdana" font-size="5.2" lengthAdjust="spacing" textLength="27.2467" x="125.7808" y="498.0349">Generated</text><text fill="#000000" font-family="Verdana" font-size="5.2" lengthAdjust="spacing" textLength="26.6398" x="126.0842" y="504.3546">Java Code</text></g><!--link output_file to p6--><g class="link" data-entity-1="output_file" data-entity-2="p6" data-source-line="44" data-uid="lnk25" id="link_output_file_p6"><path d="M116.7048,532.5229 C107.9808,541.6909 94.2752,556.0923 83.1872,567.7443" fill="none" id="output_file-to-p6" style="stroke:#000000;stroke-width:0.4;"/><polygon fill="#000000" points="81.5328,569.4829,85.1735,567.978,82.9115,568.0341,82.8554,565.772,81.5328,569.4829" style="stroke:#000000;stroke-width:0.4;"/><text fill="#000000" font-family="Verdana" font-size="5.2" lengthAdjust="spacing" textLength="24.276" x="104.4408" y="550.0389">Compiled</text><text fill="#000000" font-family="Verdana" font-size="5.2" lengthAdjust="spacing" textLength="22.1508" x="105.5034" y="556.3586">Program</text></g><!--link db to p6--><g class="link" data-entity-1="db" data-entity-2="p6" data-source-line="45" data-uid="lnk26" id="link_db_p6"><path d="M71.9968,367.3229 C68.8408,379.6469 64.6728,399.1709 64.6728,416.3829 C64.6728,416.3829 64.6728,416.3829 64.6728,525.4069 C64.6728,540.4949 65.6931,555.3519 66.7131,567.0959" fill="none" id="db-to-p6" style="stroke:#000000;stroke-width:0.4;"/><polygon fill="#000000" points="66.9208,569.4869,68.2033,565.762,66.7477,567.4944,65.0153,566.0389,66.9208,569.4869" style="stroke:#000000;stroke-width:0.4;"/><text fill="#000000" font-family="Verdana" font-size="5.2" lengthAdjust="spacing" textLength="28.2217" x="65.0728" y="465.2229">Table Data</text><text fill="#000000" font-family="Verdana" font-size="5.2" lengthAdjust="spacing" textLength="27.7443" x="65.3114" y="471.5426">(via JDBC)</text></g><!--link p6 to results--><g class="link" data-entity-1="p6" data-entity-2="results" data-source-line="47" data-uid="lnk27" id="link_p6_results"><path d="M61.7568,598.1149 C56.2888,609.7789 49.7155,623.7979 45.4155,632.9699" fill="none" id="p6-to-results" style="stroke:#000000;stroke-width:0.4;"/><polygon fill="#000000" points="44.3968,635.1429,47.3736,632.5625,45.2457,633.3321,44.4762,631.2042,44.3968,635.1429" style="stroke:#000000;stroke-width:0.4;"/><text fill="#000000" font-family="Verdana" font-size="5.2" lengthAdjust="spacing" textLength="15.7777" x="57.006" y="615.6589">Query</text><text fill="#000000" font-family="Verdana" font-size="5.2" lengthAdjust="spacing" textLength="18.0121" x="55.8888" y="621.9786">Output</text></g><!--link results to user--><g class="link" data-entity-1="results" data-entity-2="user" data-source-line="48" data-uid="lnk28" id="link_results_user"><path d="M38.7248,635.1789 C35.3368,624.3469 29.4728,602.9149 29.4728,584.2189 C29.4728,111.7109 29.4728,111.7109 29.4728,111.7109 C29.4728,91.7309 33.27,71.3817 36.638,56.7617" fill="none" id="results-to-user" style="stroke:#000000;stroke-width:0.4;"/><polygon fill="#000000" points="37.1768,54.4229,34.8094,57.5719,36.7278,56.3719,37.9278,58.2902,37.1768,54.4229" style="stroke:#000000;stroke-width:0.4;"/></g><!--SRC=[LPDDSzGm38Rl_XKY7A27BUpdWGC7zeDfXzBj5wVCC4wYfgPPEsCxIyklHrAyk-daujYFv5TwvNVn2NS8RQEDLU7Ps5PxlOD2by-rTvsjbgvn7jvlrlmf5Kri4DPtDpzWwrs98T3f25OwQjWqxY-iZAufWr8VOFqIqLlT05eACnYKBYFXsKD0du4EqD52LHHRw82GRLs8jKTAdjjLsXMkAjIZeNkpxsZHwuZLJOV-zVoFtci1N1VRBlvcA942m2s6heb16D-lMLcIJeeybb7RcYF6vvzpUs4fJsuJO6mjeUru24uObFm4Qd-Y9aDgojGltHYgppZR4zCXCMDY-sHoktHsZvJeWCs6s9onfQimjwdy8pSVSek1hFKBbjs9Mt3Hub4W0wZiqZKDHH8G85jVRLBOnmkRBBl5zgnlVHY_fKdmTSigdAU01SYFhS81dxp5QNwwdStj5KRDJYTgUbJqI5CJ54y2Z4PVgTNmXIJnWFKMVf8UmSRvdOxy9nffaimUGUpAbA8e2Pvmy4z66_CFgzGFk8kUJI9k8XmLnI2RXnMauWdgojXv98u1IJWLDQb1cQ9_sPxnTZANhpaHYixwAqJBe5kSjaXdalPozMqvQ0pVsiiZNnb9IzNEPJcOSOu-FeNSNj8p09uGoZ6a9C62uQNRjRHJoMJp-ymEMlhpUrqGptwGftkZWRMTSJKBeTBROJHrwrhkoTJXX2bvply1]--></g></svg>